<svg height="496pt" viewBox="0 0 496 496" width="496pt" xmlns="http://www.w3.org/2000/svg" xmlns:xlink="http://www.w3.org/1999/xlink"><linearGradient id="a" gradientUnits="userSpaceOnUse" x1="248" x2="248" y1="496" y2="0"><stop offset="0" stop-color="#9f2fff"/><stop offset="1" stop-color="#0bb1d3"/></linearGradient><path d="m352 32c-31.855469 0-61.230469 10.527344-85.105469 28.105469-10.6875-12.769531-26.199219-20.105469-42.894531-20.105469-4.96875 0-9.847656.648438-14.59375 1.9375-11.628906-25.386719-36.980469-41.9375-65.40625-41.9375-39.695312 0-72 32.304688-72 72 0 2.679688.207031 5.351562.503906 8h-32.503906c-22.054688 0-40 17.945312-40 40v176c0 22.054688 17.945312 40 40 40h88v32h-56v16h208v-16h-32v-32h32v-16h-240c-13.230469 0-24-10.769531-24-24v-8h245.6875c14.679688 11.855469 31.726562 20.839844 50.3125 26.230469v21.769531h-16v16h16v104c0 22.054688 17.945312 40 40 40s40-17.945312 40-40v-104h16v-16h-16v-21.769531c59.984375-17.390625 104-72.71875 104-138.230469 0-79.398438-64.601562-144-144-144zm-120 336h-88v-32h88zm-88-352c24.238281 0 45.609375 15.488281 53.175781 38.527344l2.753907 8.359375 8.0625-3.527344c5.085937-2.230469 10.472656-3.359375 16.007812-3.359375 11.886719 0 22.953125 5.191406 30.59375 14.257812-24.867188 22.917969-41.714844 54.367188-45.648438 89.742188h-128.945312c-17.648438 0-32-14.351562-32-32s14.351562-32 32-32 32 14.351562 32 32h16c0-23.464844-16.9375-43.015625-39.222656-47.160156-.464844-2.910156-.777344-5.855469-.777344-8.839844 0-30.878906 25.121094-56 56-56zm-128 104c0-13.230469 10.769531-24 24-24h4.320312c-7.632812 8.503906-12.320312 19.695312-12.320312 32 0 26.472656 21.527344 48 48 48h128c0 36.894531 14.070312 70.496094 36.976562 96h-228.976562zm360 336c0 13.230469-10.769531 24-24 24s-24-10.769531-24-24v-104h48zm0-120h-48v-18.167969c7.824219 1.320313 15.808594 2.167969 24 2.167969s16.175781-.847656 24-2.167969zm-24-32c-70.574219 0-128-57.425781-128-128s57.425781-128 128-128 128 57.425781 128 128-57.425781 128-128 128zm0-240c-61.761719 0-112 50.238281-112 112s50.238281 112 112 112 112-50.238281 112-112-50.238281-112-112-112zm-96 112c0-5.464844.566406-10.785156 1.449219-16h22.550781c4.40625 0 8 3.59375 8 8v15.769531c0 7.726563 3.761719 15.03125 10.046875 19.527344l42.601563 30.421875c2.09375 1.503906 3.351562 3.9375 3.351562 6.511719v17.136719c0 2.136718-.832031 4.152343-2.34375 5.664062l-7.273438 7.273438c-44.542968-8.304688-78.382812-47.394532-78.382812-94.304688zm99.023438 95.847656c3.175781-4.160156 4.976562-9.160156 4.976562-14.480468v-17.136719c0-7.726563-3.761719-15.03125-10.046875-19.527344l-42.601563-30.421875c-2.09375-1.503906-3.351562-3.9375-3.351562-6.511719v-15.769531c0-13.230469-10.769531-24-24-24h-18.398438c12.367188-34.816406 44.199219-60.425781 82.398438-63.59375v9.371094c0 12.191406-4.753906 23.664062-13.367188 32.285156-6.855468 6.847656-10.632812 15.960938-10.632812 25.648438 0 20.007812 16.28125 36.289062 36.289062 36.289062h2.605469c3.738281 0 7.25 1.457031 9.898438 4.097656l11.117187 11.117188c5.65625 5.664062 13.1875 8.785156 21.203125 8.785156 5.757813 0 10.855469 3.457031 12.992188 8.800781l9.269531 23.175781c-16.960938 18.894532-41.230469 31.023438-68.351562 31.871094zm79.511718-47.0625-5.574218-13.9375c-4.585938-11.449218-15.511719-18.847656-27.847657-18.847656-3.738281 0-7.25-1.457031-9.898437-4.097656l-11.117188-11.117188c-5.664062-5.664062-13.195312-8.785156-21.210937-8.785156h-2.605469c-11.175781 0-20.28125-9.105469-20.28125-20.289062 0-5.414063 2.113281-10.511719 5.945312-14.34375 11.640626-11.640626 18.054688-27.128907 18.054688-43.589844v-9.371094c49.191406 4.089844 88 45.363281 88 95.59375 0 17.824219-4.96875 34.464844-13.464844 48.785156zm-58.535156-.785156h16v16h-16zm0 0" fill="url(#a)"/></svg>