<?xml version="1.0" encoding="iso-8859-1"?>
<!-- Generator: Adobe Illustrator 22.1.0, SVG Export Plug-In . SVG Version: 6.00 Build 0)  -->
<svg xmlns="http://www.w3.org/2000/svg" xmlns:xlink="http://www.w3.org/1999/xlink" version="1.1" id="Layer_1_1_" x="0px" y="0px" viewBox="0 0 64 64" style="enable-background:new 0 0 64 64;" xml:space="preserve" width="512" height="512">
<linearGradient id="SVGID_1_" gradientUnits="userSpaceOnUse" x1="32" y1="63" x2="32" y2="1">
	<stop offset="0" style="stop-color:#9F2FFF"/>
	<stop offset="1" style="stop-color:#0BB1D3"/>
</linearGradient>
<path style="fill:url(#SVGID_1_);" d="M27,21h-2v-2h2V21z M31,19h-2v2h2V19z M37,33h2v-2h-2V33z M33,33h2v-2h-2V33z M37,45h2v-2h-2  V45z M33,45h2v-2h-2V45z M5,7h10V5H5V7z M5,11h10V9H5V11z M15,57H5v2h10V57z M15,53H5v2h10V53z M45,1h18v14h-8v11  c0,2.757-2.243,5-5,5h-7v2h7c2.757,0,5,2.243,5,5v11h8v14H45V49h8V38c0-1.654-1.346-3-3-3h-7.184  c-0.302,0.847-0.969,1.514-1.816,1.816v2.369c1.161,0.414,2,1.514,2,2.816v4c0,1.654-1.346,3-3,3H24c-1.654,0-3-1.346-3-3v-4  c0-1.302,0.839-2.402,2-2.816v-2.369c-0.847-0.302-1.514-0.969-1.816-1.816H14c-1.654,0-3,1.346-3,3v11h8v14H1V49h8V38  c0-2.757,2.243-5,5-5h7v-2h-7c-2.757,0-5-2.243-5-5V15H1V1h18v14h-8v11c0,1.654,1.346,3,3,3h7.184  c0.302-0.847,0.969-1.514,1.816-1.816v-2.369c-1.161-0.414-2-1.514-2-2.816v-4c0-1.654,1.346-3,3-3h16c1.654,0,3,1.346,3,3v4  c0,1.302-0.839,2.402-2,2.816v2.369c0.847,0.302,1.514,0.969,1.816,1.816H50c1.654,0,3-1.346,3-3V15h-8V1z M3,13h14V3H3V13z M17,51  H3v10h14V51z M61,51H47v10h14V51z M25,25v2h14v-2H25z M23,22c0,0.551,0.448,1,1,1h16c0.552,0,1-0.449,1-1v-4c0-0.551-0.448-1-1-1H24  c-0.552,0-1,0.449-1,1V22z M39,39v-2H25v2H39z M41,42c0-0.552-0.448-1-1-1H24c-0.552,0-1,0.448-1,1v4c0,0.552,0.448,1,1,1h16  c0.552,0,1-0.448,1-1V42z M41,30c0-0.551-0.448-1-1-1H24c-0.552,0-1,0.449-1,1v4c0,0.552,0.448,1,1,1h16c0.552,0,1-0.448,1-1V30z   M47,13h14V3H47V13z M49,7h10V5H49V7z M49,11h10V9H49V11z M59,57H49v2h10V57z M59,53H49v2h10V53z"/>
</svg>
