<?xml version="1.0" encoding="iso-8859-1"?>
<!-- Generator: Adobe Illustrator 22.1.0, SVG Export Plug-In . SVG Version: 6.00 Build 0)  -->
<svg xmlns="http://www.w3.org/2000/svg" xmlns:xlink="http://www.w3.org/1999/xlink" version="1.1" id="Layer_1_1_" x="0px" y="0px" viewBox="0 0 64 64" style="enable-background:new 0 0 64 64;" xml:space="preserve" width="512" height="512">
<linearGradient id="SVGID_1_" gradientUnits="userSpaceOnUse" x1="32" y1="63" x2="32" y2="1">
	<stop offset="0" style="stop-color:#9F2FFF"/>
	<stop offset="1" style="stop-color:#0BB1D3"/>
</linearGradient>
<path style="fill:url(#SVGID_1_);" d="M61,1h-3.697c-0.396,0-0.779,0.116-1.109,0.336L53.697,3H47c-1.103,0-2,0.897-2,2v8  c0,1.103,0.897,2,2,2h6v7H35.858c-0.364-1.399-1.459-2.494-2.858-2.858V15h6c1.103,0,2-0.897,2-2V3c0-1.103-0.897-2-2-2h-3.697  c-0.396,0-0.779,0.116-1.109,0.336L31.697,3H25c-1.103,0-2,0.897-2,2v8c0,1.103,0.897,2,2,2h6v4.142  c-1.399,0.364-2.494,1.459-2.858,2.858H10v-7h7c1.103,0,2-0.897,2-2V3c0-1.103-0.897-2-2-2h-3.697c-0.396,0-0.779,0.116-1.109,0.336  L9.697,3H3C1.897,3,1,3.897,1,5v8c0,1.103,0.897,2,2,2h5v9h20.142c0.364,1.399,1.459,2.494,2.858,2.858V31h-9c-1.654,0-3,1.346-3,3  v2c0,1.302,0.839,2.402,2,2.816v4.369c-1.161,0.414-2,1.514-2,2.816v2c0,1.302,0.839,2.402,2,2.816v4.369  c-1.161,0.414-2,1.514-2,2.816v2c0,1.654,1.346,3,3,3h20c1.654,0,3-1.346,3-3v-2c0-1.302-0.839-2.402-2-2.816v-4.369  c1.161-0.414,2-1.514,2-2.816v-2c0-1.302-0.839-2.402-2-2.816v-4.369c1.161-0.414,2-1.514,2-2.816v-2c0-1.654-1.346-3-3-3h-9v-4.142  c1.399-0.364,2.494-1.459,2.858-2.858H55v-9h6c1.103,0,2-0.897,2-2V3C63,1.897,62.103,1,61,1z M32.303,5l3-2H39l0,4H25V5H32.303z   M25,9h14.001l0,4H25V9z M10.303,5l3-2H17l0,4H3V5H10.303z M3,9h14.001l0,4H3V9z M23,43v-4h18v4H23z M23,55v-4h18v4H23z M43,60  c0,0.551-0.448,1-1,1H22c-0.552,0-1-0.449-1-1v-2c0-0.551,0.448-1,1-1h20c0.552,0,1,0.449,1,1V60z M43,48c0,0.551-0.448,1-1,1H22  c-0.552,0-1-0.449-1-1v-2c0-0.551,0.448-1,1-1h20c0.552,0,1,0.449,1,1V48z M43,34v2c0,0.551-0.448,1-1,1H22c-0.552,0-1-0.449-1-1v-2  c0-0.551,0.448-1,1-1h20C42.552,33,43,33.449,43,34z M32,25c-1.103,0-2-0.897-2-2s0.897-2,2-2s2,0.897,2,2S33.103,25,32,25z   M54.303,5l3-2H61l0,4H47V5H54.303z M47,13V9h14.001l0,4H47z M10,35H8v-3h2V35z M5.465,33.05l2.121,2.122l-1.414,1.414l-2.121-2.122  L5.465,33.05z M3,37h3v2H3V37z M7.586,40.828L5.465,42.95l-1.414-1.414l2.121-2.122L7.586,40.828z M8,41h2v3H8V41z M10.414,40.828  l1.414-1.414l2.121,2.122l-1.414,1.414L10.414,40.828z M12,39v-2h3v2H12z M12.535,33.05l1.414,1.414l-2.121,2.122l-1.414-1.414  L12.535,33.05z M8,46h2v2H8V46z M8,50h2v2H8V50z M8,54h2v2H8V54z M54,53h2v3h-2V53z M56.414,52.828l1.414-1.414l2.121,2.122  l-1.414,1.414L56.414,52.828z M58,51v-2h3v2H58z M58.535,45.05l1.414,1.414l-2.121,2.122l-1.414-1.414L58.535,45.05z M54,44h2v3h-2  V44z M53.586,47.172l-1.414,1.414l-2.121-2.122l1.414-1.414L53.586,47.172z M49,49h3v2h-3V49z M52.172,51.414l1.414,1.414  l-2.121,2.122l-1.414-1.414L52.172,51.414z M54,40h2v2h-2V40z M54,36h2v2h-2V36z M56,34h-2v-2h2V34z"/>
</svg>
