<svg height="496pt" viewBox="0 0 496 496" width="496pt" xmlns="http://www.w3.org/2000/svg" xmlns:xlink="http://www.w3.org/1999/xlink"><linearGradient id="a" gradientUnits="userSpaceOnUse" x1="248" x2="248" y1="496" y2="0"><stop offset="0" stop-color="#9f2fff"/><stop offset="1" stop-color="#0bb1d3"/></linearGradient><path d="m104 304c22.054688 0 40-17.945312 40-40v-26.640625c0-8.222656 4.238281-15.824219 11.34375-20.328125 27.96875-17.71875 44.65625-48.015625 44.65625-81.03125 0-27.328125-11.695312-53.441406-32.097656-71.648438-20.382813-18.183593-47.796875-26.832031-75.148438-23.710937-42.824218 4.878906-78.089844 39.382813-83.859375 82.03125-5.125 37.945313 11.707031 74.144531 43.929688 94.472656 7 4.414063 11.175781 11.96875 11.175781 20.207031v26.648438c0 22.054688 17.945312 40 40 40zm-24-64h48v16h-48zm0-96h-8c-4.40625 0-8-3.59375-8-8s3.59375-8 8-8 8 3.59375 8 8zm32 80h-16v-64h16zm-8 64c-10.414062 0-19.214844-6.710938-22.527344-16h45.046875c-3.304687 9.289062-12.105469 16-22.519531 16zm-42.632812-84.382812c-26.855469-16.945313-40.886719-47.136719-36.605469-78.800782 4.789062-35.503906 34.148437-64.214844 69.804687-68.28125 3.203125-.367187 6.386719-.542968 9.546875-.542968 19.695313 0 38.285157 7.039062 53.144531 20.304687 16.988282 15.175781 26.742188 36.933594 26.742188 59.703125 0 27.503906-13.910156 52.742188-37.214844 67.511719-7.792968 4.9375-13.441406 12.183593-16.410156 20.488281h-2.375v-64h8c13.230469 0 24-10.769531 24-24s-10.769531-24-24-24-24 10.769531-24 24v8h-16v-8c0-13.230469-10.769531-24-24-24s-24 10.769531-24 24 10.769531 24 24 24h8v64h-2.351562c-2.945313-8.296875-8.542969-15.511719-16.28125-20.382812zm66.632812-59.617188v-8c0-4.40625 3.59375-8 8-8s8 3.59375 8 8-3.59375 8-8 8zm144-88c0-13.230469-10.769531-24-24-24s-24 10.769531-24 24v392h-48c-22.054688 0-40 17.945312-40 40v8h224v-8c0-22.054688-17.945312-40-40-40h-48v-232h64v40h157.601562l-44.449218-80 44.449218-80h-93.601562v-40zm70.632812 424h-189.265624c3.304687-9.3125 12.199218-16 22.632812-16h144c10.433594 0 19.328125 6.6875 22.632812 16zm-102.632812-32v-392c0-4.40625 3.59375-8 8-8s8 3.59375 8 8v392zm32-376h112v128h-112zm97.902344 144-17.902344 14.921875v-14.921875zm96.496094-104-35.550782 64 35.550782 64h-100.300782l33.902344-28.257812v-99.742188zm-354.398438-88h-16v-24h16zm-43.472656 5.464844-14.773438 6.128906-9.195312-22.179688 14.785156-6.125zm-49.375 33-16.976563-16.976563 11.3125-11.3125 16.976563 16.976563zm186.671875-16.976563-16.976563 16.976563-11.3125-11.3125 16.976563-16.976563zm-42.382813-32.074219-9.183594 22.179688-14.785156-6.128906 9.183594-22.175782zm44.558594 402.585938h-16v-104h-48v104h-16v-88h-48v88h-16v-64h-48v64h-16v16h208zm-48-88h16v88h-16zm-64 16h16v72h-16zm-64 24h16v48h-16zm304-24h-16v-16h16zm-16 0v16h-16v-16zm0 32v-16h16v16zm16-16v-16h16v16zm96 48h-16v-16h16zm-16 0v16h-16v-16zm0 32v-16h16v16zm16-16v-16h16v16zm48-136h-16v-16h16zm-16 0v16h-16v-16zm0 16h16v16h-16zm16-16h16v16h-16zm0 0" fill="url(#a)"/></svg>