<svg height="496pt" viewBox="-43 0 495 496" width="496pt" xmlns="http://www.w3.org/2000/svg" xmlns:xlink="http://www.w3.org/1999/xlink"><linearGradient id="a" gradientUnits="userSpaceOnUse" x1="204.5" x2="204.5" y1="496" y2="0"><stop offset="0" stop-color="#9f2fff"/><stop offset="1" stop-color="#0bb1d3"/></linearGradient><path d="m384.5 320c0-17.648438-14.351562-32-32-32h-52.71875c.4375-2.609375.71875-5.273438.71875-8 0-7.414062-5.105469-13.617188-11.96875-15.425781.089844-2.710938 1.519531-5.191407 3.800781-6.519531 32.183594-18.527344 52.167969-53.03125 52.167969-90.054688 0-28.574219-11.351562-55.214844-31.96875-75.015625-20.597656-19.800781-47.847656-30.152344-76.320312-28.894531-54 2.175781-98.726563 47.941406-99.695313 102.015625-.671875 37.839843 19.335937 73.101562 52.222656 92.007812 2.320313 1.335938 3.761719 3.910157 3.761719 6.734375v.59375c-4.617188 1.222656-9.023438 3.183594-12.992188 6.015625l-39.3125 28.070313c-4.101562 2.929687-8.917968 4.472656-13.953124 4.472656h-45.742188c0-8.824219-7.175781-16-16-16h-48c-8.824219 0-16 7.175781-16 16v160c0 8.824219 7.175781 16 16 16h48c8.824219 0 16-7.175781 16-16h33.207031c3.386719 0 6.664063.695312 9.746094 2.070312l59.582031 26.480469c5.144532 2.28125 10.617188 3.449219 16.257813 3.449219h153.207031c17.648438 0 32-14.351562 32-32 0-9.609375-4.335938-18.128906-11.054688-24 6.71875-5.871094 11.054688-14.390625 11.054688-24s-4.335938-18.128906-11.054688-24c6.71875-5.871094 11.054688-14.390625 11.054688-24s-4.335938-18.128906-11.054688-24c6.71875-5.871094 11.054688-14.390625 11.054688-24zm-231.984375-153.617188c.824219-45.75 38.65625-84.472656 84.335937-86.3125 24.410157-.878906 47.167969 7.714844 64.59375 24.457032 17.445313 16.746094 27.054688 39.296875 27.054688 63.472656 0 31.3125-16.910156 60.511719-44.160156 76.199219-7.054688 4.074219-11.441406 11.617187-11.726563 19.800781h-8.113281v-48h8c13.230469 0 24-10.769531 24-24s-10.769531-24-24-24-24 10.769531-24 24v8h-16v-8c0-13.230469-10.769531-24-24-24s-24 10.769531-24 24 10.769531 24 24 24h8v48h-8.113281c-.292969-8.191406-4.648438-15.710938-11.671875-19.761719-27.832032-16.007812-44.765625-45.832031-44.199219-77.855469zm63.984375 33.617188h-8c-4.414062 0-8-3.585938-8-8s3.585938-8 8-8 8 3.585938 8 8zm32 64h-16v-48h16zm16-64v-8c0-4.414062 3.585938-8 8-8s8 3.585938 8 8-3.585938 8-8 8zm-248 264v-160h48l.015625 160zm173.046875 13.929688-59.582031-26.480469c-5.144532-2.28125-10.617188-3.449219-16.257813-3.449219h-33.207031v-128h45.742188c8.386718 0 16.425781-2.574219 23.25-7.457031l39.3125-28.070313c4.101562-2.929687 8.917968-4.480468 13.953124-4.480468h81.742188c0 17.648437-14.351562 32-32 32h-39.3125l-74.34375 74.34375 11.3125 11.3125 47.800781-47.800782c8.070313 15.640625 24.277344 26.152344 42.542969 26.152344.375 0 .742188-.046875 1.121094-.054688 1.632812 6.34375 5.152344 11.871094 9.933594 16.054688-6.71875 5.871094-11.054688 14.390625-11.054688 24s4.335938 18.128906 11.054688 24c-6.71875 5.871094-11.054688 14.390625-11.054688 24 0 5.855469 1.695312 11.273438 4.449219 16h-45.664063c-3.378906 0-6.65625-.695312-9.738281-2.070312zm52.128906-118.050782c-.398437.015625-.785156.121094-1.175781.121094-13.992188 0-26.207031-9.222656-30.390625-22.296875l9.703125-9.703125h21.824219c1.640625 6.320312 5.144531 11.832031 9.917969 16-4.742188 4.144531-8.230469 9.617188-9.878907 15.878906zm126.824219 104.121094c0 8.824219-7.175781 16-16 16h-80c-8.824219 0-16-7.175781-16-16s7.175781-16 16-16h80c8.824219 0 16 7.175781 16 16zm0-48c0 8.824219-7.175781 16-16 16h-80c-8.824219 0-16-7.175781-16-16s7.175781-16 16-16h80c8.824219 0 16 7.175781 16 16zm0-48c0 8.824219-7.175781 16-16 16h-80c-8.824219 0-16-7.175781-16-16s7.175781-16 16-16h80c8.824219 0 16 7.175781 16 16zm-96-32c-6.0625 0-11.289062-3.433594-14-8.414062 15.175781-1.90625 28.144531-10.90625 35.503906-23.585938h58.496094c8.824219 0 16 7.175781 16 16s-7.175781 16-16 16zm-4.007812-216.511719 8.015624-13.839843c22.199219 12.832031 35.992188 36.71875 35.992188 62.351562h-16c0-19.9375-10.734375-38.519531-28.007812-48.511719zm-13.976563-5.71875c-4.566406-1.175781-9.28125-1.769531-14.015625-1.769531v-16c6.070312 0 12.128906.769531 17.984375 2.265625zm-22.015625-81.769531h16v16h-16zm16-16h-16v-16h16zm-61.3125 44.191406-6.128906-14.777344 14.785156-6.125 6.128906 14.78125zm-3.582031-50.464844 6.125 14.785157-14.78125 6.128906-6.128907-14.792969zm-33.609375 79.082032-11.3125-11.3125 11.3125-11.3125 11.3125 11.3125zm-22.640625-45.265625 11.320312 11.320312-11.3125 11.3125-11.320312-11.320312zm-15.566407 79.800781 6.125-14.785156 14.785157 6.128906-6.128907 14.785156zm-8.65625-20.894531-6.128906 14.78125-14.785156-6.125 6.128906-14.785157zm1.367188 57.550781h16v16h-16zm-32 0h16v16h-16zm54.070312 46.527344 6.128907 14.785156-14.785157 6.128906-6.125-14.785156zm-29.566406 12.25 6.128906 14.78125-14.785156 6.128906-6.128906-14.785156zm257.425782-12.25 14.78125 6.128906-6.125 14.785156-14.785157-6.128906zm29.566406 12.25 14.785156 6.125-6.128906 14.785156-14.785156-6.128906zm-7.496094-42.777344h-16v-16h16zm16-16h16v16h-16zm-29.414062-51.441406 6.125 14.785156-14.78125 6.128906-6.128907-14.785156zm20.910156 8.664062-6.128906-14.78125 14.785156-6.128906 6.128906 14.785156zm-41.671875-39.726562-11.3125 11.3125-11.3125-11.3125 11.3125-11.3125zm11.320312-33.953125 11.3125 11.3125-11.320312 11.320312-11.3125-11.3125zm-68.488281-4.253907 14.785156 6.125-6.128906 14.785157-14.785156-6.128907zm20.894531-8.65625-14.78125-6.128906 6.125-14.785156 14.785157 6.128906zm0 0" fill="url(#a)"/></svg>