<?xml version="1.0" encoding="iso-8859-1"?>
<!-- Generator: Adobe Illustrator 22.1.0, SVG Export Plug-In . SVG Version: 6.00 Build 0)  -->
<svg xmlns="http://www.w3.org/2000/svg" xmlns:xlink="http://www.w3.org/1999/xlink" version="1.1" id="Layer_1_1_" x="0px" y="0px" viewBox="0 0 64 64" style="enable-background:new 0 0 64 64;" xml:space="preserve" width="512" height="512">
<linearGradient id="SVGID_1_" gradientUnits="userSpaceOnUse" x1="32" y1="54" x2="32" y2="9.3994">
	<stop offset="0" style="stop-color:#9F2FFF"/>
	<stop offset="1" style="stop-color:#0BB1D3"/>
</linearGradient>
<path style="fill:url(#SVGID_1_);" d="M61,45.649l-3.564-4.455l1.323-1.544l-1.519-1.301l-1.076,1.255l-2.729-3.411l1.323-1.544  l-1.519-1.301l-1.076,1.255l-2.729-3.411l1.323-1.544l-1.519-1.301l-1.076,1.255l-2.729-3.411l1.323-1.544l-1.519-1.301  l-1.076,1.255l-2.729-3.411l1.323-1.544l-1.519-1.301l-1.076,1.255l-2.729-3.411l1.323-1.544l-1.519-1.301l-1.076,1.255L32,9.399  l-4.165,5.206l-1.076-1.255l-1.519,1.301l1.323,1.544l-2.729,3.411l-1.076-1.255l-1.519,1.301l1.323,1.544l-2.729,3.411  l-1.076-1.255l-1.519,1.301l1.323,1.544l-2.729,3.411l-1.076-1.255l-1.519,1.301l1.323,1.544l-2.729,3.411l-1.076-1.255L9.241,34.65  l1.323,1.544l-2.729,3.411L6.759,38.35L5.241,39.65l1.323,1.544L3,45.649V46H1v8h62v-8h-2V45.649z M58.72,46h-5.403l2.794-3.26  L58.72,46z M35,46h-6v-8h6V46z M13.281,46L16,42.601L18.719,46H13.281z M20,44.399L17.281,41L20,37.601L22.719,41L20,44.399z   M24,39.399L21.281,36L24,32.601L26.719,36L24,39.399z M32,22.601L34.719,26L32,29.399L29.281,26L32,22.601z M33.281,31L36,27.601  L38.719,31L36,34.399L33.281,31z M30.719,31L28,34.399L25.281,31L28,27.601L30.719,31z M29.281,36L32,32.601L34.719,36H29.281z   M40,32.601L42.719,36L40,39.399L37.281,36L40,32.601z M44,37.601L46.719,41L44,44.399L41.281,41L44,37.601z M45.281,46L48,42.601  L50.719,46H45.281z M54.84,41.151l-2.813,3.282l-2.729-3.411l2.813-3.282L54.84,41.151z M50.84,36.151l-2.813,3.282l-2.729-3.411  l2.813-3.282L50.84,36.151z M46.84,31.151l-2.813,3.282l-2.729-3.411l2.813-3.282L46.84,31.151z M42.84,26.151l-2.813,3.282  l-2.729-3.411l2.813-3.282L42.84,26.151z M38.84,21.151l-2.813,3.282l-2.729-3.411l2.813-3.282L38.84,21.151z M33,18.297v-4.447  l1.84,2.3L33,18.297z M31,13.851v4.447l-1.84-2.147L31,13.851z M27.889,17.74l2.813,3.282l-2.729,3.411l-2.813-3.282L27.889,17.74z   M23.889,22.74l2.813,3.282l-2.729,3.411l-2.813-3.282L23.889,22.74z M19.889,27.74l2.813,3.282l-2.729,3.411l-2.813-3.282  L19.889,27.74z M15.889,32.74l2.813,3.282l-2.729,3.411l-2.813-3.282L15.889,32.74z M11.889,37.74l2.813,3.282l-2.729,3.411  L9.16,41.151L11.889,37.74z M7.889,42.74L10.683,46H5.28L7.889,42.74z M61,52h-2v-2h-2v2H7v-2H5v2H3v-4h20v-2h-1.719L27,38.851V46  h-2v2h14v-2h-2v-7.149L42.719,46H41v2h20V52z"/>
</svg>
