<svg height="496pt" viewBox="0 -2 496 496" width="496pt" xmlns="http://www.w3.org/2000/svg" xmlns:xlink="http://www.w3.org/1999/xlink"><linearGradient id="a" gradientUnits="userSpaceOnUse" x1="248" x2="248" y1="492.136" y2=".0032"><stop offset="0" stop-color="#9f2fff"/><stop offset="1" stop-color="#0bb1d3"/></linearGradient><path d="m480 476.136719h16v16h-16zm-480 16h16v-16h-16zm445.679688-16h18.320312v16h-440v-16h18l40.878906-140.167969c8.90625-30.511719 37.320313-51.832031 69.121094-51.832031l4.664062-16h-108.664062c-26.472656 0-48-21.527344-48-48 0-23.929688 17.617188-43.761719 40.542969-47.359375-.34375-2.867188-.542969-5.746094-.542969-8.640625 0-39.703125 32.296875-72 72-72 28.425781 0 53.777344 16.550781 65.40625 41.933593 16.53125-4.503906 34.777344-.78125 48.488281 9.617188 4.546875-1.488281 9.273438-2.496094 14.105469-3.046875v-140.640625l141.886719 60.816406-125.886719 44.960938v34.863281c28.464844 3.230469 52.976562 23.398437 61.121094 51.328125l36.855468 126.34375c24.457032 6 44.855469 23.984375 53.429688 48.480469zm-189.679688-387.351563 82.113281-29.328125-82.113281-35.183593zm-12.71875 387.351563h185.4375l-25.542969-72.992188c-4.589843 4.984375-10.742187 8.992188-19.199219 8.992188-16.953124 0-24.832031-15.761719-31.167968-28.425781-6.097656-12.175782-10.28125-19.574219-16.863282-19.574219-6.578124 0-10.761718 7.398437-16.839843 19.574219-6.328125 12.664062-14.21875 28.425781-31.152344 28.425781-8.433594 0-14.570313-3.992188-19.144531-8.960938zm92.71875-144c-25.3125 0-47.945312 16.054687-56.3125 39.941406l-4.375 12.507813c4.679688 8.324218 8.253906 11.550781 12.640625 11.550781 6.574219 0 10.75-7.402344 16.832031-19.578125 6.335938-12.664063 14.214844-28.421875 31.160156-28.421875 16.949219 0 24.832032 15.757812 31.167969 28.421875 6.09375 12.175781 10.277344 19.578125 16.863281 19.578125 4.398438 0 7.992188-3.242188 12.6875-11.59375l-4.359374-12.464844c-8.359376-23.886719-30.992188-39.941406-56.304688-39.941406zm.671875-15.976563-21.34375-73.183594c-4.671875 5.144532-10.855469 9.160157-19.351563 9.160157-16.953124 0-24.832031-15.761719-31.167968-28.425781-6.097656-12.175782-10.28125-19.574219-16.863282-19.574219-6.578124 0-10.761718 7.398437-16.839843 19.574219-6.328125 12.664062-14.21875 28.425781-31.152344 28.425781-8.464844 0-14.640625-3.984375-19.296875-9.105469l-12.542969 43c24.925781 5.800781 45.648438 24.710938 53.007813 49.945312l24.664062 84.550782 18.800782-53.726563c10.613281-30.304687 39.308593-50.664062 71.414062-50.664062.222656 0 .449219.023437.671875.023437zm-88.671875-160.023437c-24.726562 0-46.832031 16.574219-53.761719 40.320312l-7.757812 26.597657c5.160156 9.546874 8.839843 13.082031 13.472656 13.082031 6.574219 0 10.75-7.402344 16.832031-19.578125 6.335938-12.664063 14.214844-28.421875 31.160156-28.421875 16.949219 0 24.832032 15.757812 31.167969 28.421875 6.09375 12.175781 10.277344 19.578125 16.863281 19.578125 4.648438 0 8.34375-3.550781 13.527344-13.136719l-7.742187-26.542969c-6.929688-23.746093-29.035157-40.320312-53.761719-40.320312zm-86.671875 96 17.550781-60.167969c4.914063-16.839844 15.785156-30.847656 29.863282-40.046875-10.214844-4.640625-22.269532-5.019531-32.757813-.425781l-8.0625 3.527344-2.753906-8.359376c-7.558594-23.039062-28.9375-38.527343-53.167969-38.527343-30.871094 0-56 25.128906-56 56 0 2.976562.3125 5.925781.777344 8.839843 22.285156 4.144532 39.222656 23.695313 39.222656 47.160157h-16c0-17.648438-14.351562-32-32-32s-32 14.351562-32 32c0 17.648437 14.351562 32 32 32zm-63.089844 88.320312-4.644531 15.925781c4.421875 6.695313 7.589844 7.753907 10.359375 7.753907 6.574219 0 10.75-7.402344 16.832031-19.578125 6.335938-12.664063 14.214844-28.421875 31.160156-28.421875 16.949219 0 24.832032 15.757812 31.167969 28.421875 6.09375 12.175781 10.277344 19.578125 16.863281 19.578125 2.777344 0 5.96875-1.046875 10.414063-7.800781l-4.628906-15.878907c-6.929688-23.746093-29.035157-40.320312-53.761719-40.320312s-46.832031 16.574219-53.761719 40.320312zm-39.574219 135.679688h167.65625l10.375-29.640625-21.046874-72.152344c-4.015626 3.257812-9.121094 5.792969-15.671876 5.792969-16.953124 0-24.832031-15.761719-31.167968-28.425781-6.097656-12.175782-10.28125-19.574219-16.863282-19.574219-6.578124 0-10.761718 7.398437-16.839843 19.574219-6.328125 12.664062-14.21875 28.425781-31.152344 28.425781-6.441406 0-11.496094-2.328125-15.625-5.695313zm0 0" fill="url(#a)"/></svg>