<svg height="496pt" viewBox="0 0 496 496" width="496pt" xmlns="http://www.w3.org/2000/svg" xmlns:xlink="http://www.w3.org/1999/xlink"><linearGradient id="a" gradientUnits="userSpaceOnUse" x1="248" x2="248" y1="496" y2="0"><stop offset="0" stop-color="#9f2fff"/><stop offset="1" stop-color="#0bb1d3"/></linearGradient><path d="m240 48v-16h16v16zm-150.390625 52.921875 11.3125 11.308594 11.308594-11.308594-11.308594-11.3125zm-57.609375 155.078125h16v-16h-16zm68.921875 127.769531-11.3125 11.308594 11.3125 11.3125 11.308594-11.3125zm139.078125 64.230469v16h16v-16zm166.390625-52.921875-11.3125-11.308594-11.308594 11.308594 11.308594 11.3125zm73.609375-51.078125h-16v-136h-16v136h-16v-112h-16v112h-16v-88h-16v88h-16v-48h-16v48h-3.207031l-2.320313 2.222656c-24.328125 23.296875-62.066406 37.777344-98.472656 37.777344-74.992188 0-136-61.007812-136-136s61.007812-136 136-136h104v-16h-104c-83.816406 0-152 68.183594-152 152s68.183594 152 152 152c39.207031 0 79.929688-15.265625 107.152344-40h17.96875c-31.695313 35.296875-77.328125 56-125.113282 56-46.007812 0-88.945312-18.230469-120.894531-51.34375-31.945312-33.097656-48.632812-76.703125-46.992187-122.785156 3.167968-89.253906 80.375-161.871094 172.09375-161.871094h195.785156c8.824219 0 16-7.175781 16-16v-28.6875l18.34375 18.34375 11.3125-11.3125-37.65625-37.65625-37.65625 37.65625 11.3125 11.3125 18.34375-18.34375v28.6875h-195.785156c-100.238282 0-184.613282 79.535156-188.085938 177.296875-1.800781 50.464844 16.480469 98.214844 51.464844 134.464844 34.992188 36.261719 82.015625 56.238281 132.40625 56.238281 56.992188 0 111.175781-26.871094 145.902344-72h29.402344l-.535157.863281 13.496094 26.976563-48.417969 48.40625-26.976562-13.484375-3.800782 2.335937c-18.832031 11.621094-39.335937 20.109375-60.957031 25.238282l-4.335937 1.023437-9.546875 28.640625h-68.46875l-9.539063-28.632812-4.335937-1.023438c-21.621094-5.128906-42.132813-13.617188-60.957031-25.238281l-3.800782-2.335938-26.976562 13.488281-48.410156-48.417968 13.496093-26.984375-2.34375-3.792969c-11.621093-18.832031-20.109375-39.335938-25.230469-60.957031l-1.023437-4.335938-28.640625-9.539062v-68.46875l28.632812-9.546875 1.023438-4.335938c5.128906-21.621094 13.609375-42.125 25.230469-60.957031l2.34375-3.792969-13.488281-26.96875 48.417968-48.417968 26.976563 13.496093 3.800781-2.335937c18.832031-11.621094 39.335938-20.109375 60.957031-25.238282l4.335938-1.023437 9.539062-28.640625h68.46875l8.136719 24.398438 15.167969-5.054688-11.773438-35.34375h-91.539062l-10.382813 31.167969c-20.246094 5.222656-39.542968 13.207031-57.488281 23.800781l-29.367187-14.6875-64.726563 64.726562 14.6875 29.359376c-10.585937 17.945312-18.570313 37.242187-23.800781 57.488281l-31.152344 10.375v91.53125l31.167969 10.382812c5.222656 20.238281 13.207031 39.535157 23.800781 57.488281l-14.6875 29.359376 64.726562 64.71875 29.367188-14.679688c17.9375 10.585938 37.234375 18.578125 57.488281 23.800781l10.367188 31.167969h91.53125l10.382812-31.167969c20.246094-5.222656 39.542969-13.207031 57.488281-23.800781l29.367188 14.679688 64.726562-64.71875-14.6875-29.367188c.320313-.535156.617188-1.089844.929688-1.632812h54.03125v-191.992188h-16zm-24-248h-88v16h88zm-296 96h-16v16h16zm144 0h-128v16h128zm-144 32h-16v16h16zm144 0h-128v16h128zm-144 32h-16v16h16zm144 0h-128v16h128zm-160 48h16v-16h-16zm32 0h128v-16h-128zm304-152h16v-16h-16zm-16 24h-16v16h16zm-32 40v-16h-16v16zm-32 24v-16h-16v16zm-32 40v-16h-16v16zm88-152h-208v16h208zm-136 32h-72v16h72zm80 0h-64v16h64zm0 0" fill="url(#a)"/></svg>