<?xml version="1.0" encoding="iso-8859-1"?>
<!-- Generator: Adobe Illustrator 22.1.0, SVG Export Plug-In . SVG Version: 6.00 Build 0)  -->
<svg xmlns="http://www.w3.org/2000/svg" xmlns:xlink="http://www.w3.org/1999/xlink" version="1.1" id="Layer_1_1_" x="0px" y="0px" viewBox="0 0 64 64" style="enable-background:new 0 0 64 64;" xml:space="preserve" width="512" height="512">
<linearGradient id="SVGID_1_" gradientUnits="userSpaceOnUse" x1="32" y1="63" x2="32" y2="1">
	<stop offset="0" style="stop-color:#9F2FFF"/>
	<stop offset="1" style="stop-color:#0BB1D3"/>
</linearGradient>
<path style="fill:url(#SVGID_1_);" d="M5,56c0,3.86,3.14,7,7,7c3.519,0,6.432-2.613,6.92-6H22v-2h-3.08c-0.488-3.387-3.401-6-6.92-6  C8.14,49,5,52.14,5,56z M12,51c2.757,0,5,2.243,5,5s-2.243,5-5,5s-5-2.243-5-5S9.243,51,12,51z M12,59c1.654,0,3-1.346,3-3  s-1.346-3-3-3s-3,1.346-3,3S10.346,59,12,59z M12,55c0.551,0,1,0.449,1,1s-0.449,1-1,1s-1-0.449-1-1S11.449,55,12,55z M26,55h4v2h-4  V55z M34,55h4v2h-4V55z M42,55h4v2h-4V55z M50,55h4v2h-4V55z M61,54v-8c0-0.551-0.449-1-1-1h-2v-2h2c1.654,0,3,1.346,3,3v8  c0,1.654-1.346,3-3,3h-2v-2h2C60.551,55,61,54.551,61,54z M1,42v-8c0-1.654,1.346-3,3-3h2v2H4c-0.551,0-1,0.449-1,1v8  c0,0.551,0.449,1,1,1h2v2H4C2.346,45,1,43.654,1,42z M54,45h-4v-2h4V45z M46,45h-4v-2h4V45z M38,45h-4v-2h4V45z M30,45h-4v-2h4V45z   M22,45h-4v-2h4V45z M10,43h4v2h-4V43z M30,33h-4v-2h4V33z M38,33h-4v-2h4V33z M46,33h-4v-2h4V33z M22,33h-4v-2h4V33z M14,33h-4v-2  h4V33z M50.112,1h-0.224C42.782,1,37,6.782,37,13.888c0,2.875,0.978,5.703,2.754,7.962l7.842,9.981C48.18,32.574,49.056,33,50,33  s1.82-0.426,2.404-1.168l7.842-9.98C62.022,19.591,63,16.763,63,13.888C63,6.782,57.218,1,50.112,1z M58.673,20.615l-7.842,9.98  c-0.404,0.514-1.259,0.513-1.663,0l-7.842-9.981C39.826,18.706,39,16.317,39,13.888C39,7.884,43.884,3,49.888,3h0.224  C56.116,3,61,7.884,61,13.888C61,16.317,60.174,18.706,58.673,20.615z M56.707,8.707l-1.414-1.414l-1.109,1.109  C53.015,7.526,51.57,7,50,7c-3.86,0-7,3.14-7,7c0,1.57,0.526,3.015,1.402,4.184l-1.109,1.109l1.414,1.414l1.109-1.109  C46.985,20.474,48.43,21,50,21c3.86,0,7-3.14,7-7c0-1.57-0.526-3.015-1.402-4.184L56.707,8.707z M50,19c-2.757,0-5-2.243-5-5  s2.243-5,5-5s5,2.243,5,5S52.757,19,50,19z"/>
</svg>
