<svg height="496pt" viewBox="0 0 496 496" width="496pt" xmlns="http://www.w3.org/2000/svg" xmlns:xlink="http://www.w3.org/1999/xlink"><linearGradient id="a" gradientTransform="matrix(8 0 0 -8 -8 504)" gradientUnits="userSpaceOnUse" x1="32" x2="32" y1="1" y2="63"><stop offset="0" stop-color="#9f2fff"/><stop offset="1" stop-color="#0bb1d3"/></linearGradient><path d="m398.375 224.183594c.96875-8.015625 1.625-16.09375 1.625-24.183594 0-110.28125-89.71875-200-200-200s-200 89.71875-200 200 89.71875 200 200 200c34.816406 0 68.726562-9.089844 98.753906-26.175781 6.460938 13.136719 15.660156 24.863281 27.308594 34.390625-3.726562 4.234375-6.0625 9.714844-6.0625 15.785156 0 10.574219 6.921875 19.472656 16.433594 22.664062 3.308594 27.734376 26.941406 49.335938 55.566406 49.335938s52.257812-21.601562 55.566406-49.335938c9.511719-3.191406 16.433594-12.089843 16.433594-22.664062 0-6.0625-2.335938-11.542969-6.054688-15.769531 23.992188-19.671875 38.054688-48.847657 38.054688-80.230469 0-28.527344-11.328125-55.144531-31.878906-74.9375-18.03125-17.351562-41.050782-27.421875-65.746094-28.878906zm-91.949219 45.527344-41.488281-13.832032c-10.136719-3.382812-16.9375-12.824218-16.9375-23.503906 0-12.765625-6.097656-24.949219-16.304688-32.605469l-6.09375-4.570312c-6.007812-4.511719-9.601562-11.6875-9.601562-19.199219 0-13.230469 10.769531-24 24-24s24 10.769531 24 24v4.222656c0 15.3125 12.464844 27.777344 27.777344 27.777344 10.589844 0 20.109375-5.878906 24.839844-15.351562 5.136718-10.265626 15.453124-16.648438 26.933593-16.648438h38.832031c1.03125 7.863281 1.617188 15.863281 1.617188 24 0 8.230469-.695312 16.457031-1.785156 24.585938-31.070313 3-58.628906 20.300781-75.789063 45.125zm62.886719-141.710938h-18.726562c-8.097657 0-16.042969-2.199219-22.984376-6.367188l-14.984374-8.984374c-9.425782-5.65625-20.21875-8.648438-31.210938-8.648438h-5.230469c-14.96875 0-28.855469-7.441406-37.160156-19.886719-11.734375-17.601562-31.375-28.113281-52.527344-28.113281-19.289062 0-37.25 8.632812-49.296875 23.6875l-3.984375 4.976562c-5.757812 7.199219-14.351562 11.335938-23.589843 11.335938-10.554688 0-20.480469-5.617188-25.90625-14.671875l-9.351563-15.59375c32.929687-30.8125 77.105469-49.734375 125.640625-49.734375 75.921875 0 141.238281 46.222656 169.3125 112zm-353.3125 72c0-24.953125 5.015625-48.742188 14.046875-70.457031l43.359375 9.640625c8.59375 1.90625 14.59375 9.382812 14.59375 18.183594 0 19.097656 15.535156 34.632812 34.632812 34.632812h21.992188c3.375 0 6.6875.921875 9.589844 2.65625l10.640625 6.382812c11.816406 7.097657 19.152343 20.050782 19.152343 33.824219 0 10.058594 2.734376 19.921875 7.902344 28.519531l10.914063 18.183594c5.230469 8.722656 13.984375 14.679688 24.007812 16.34375l13.609375 2.265625c9.023438 1.503907 15.566406 9.230469 15.566406 18.382813v.976562c0 7.105469-3.945312 13.496094-10.304687 16.664063l-18.550781 9.28125c-11.816406 5.894531-19.152344 17.765625-19.152344 30.976562v7.253907c-2.664062.113281-5.320312.28125-8 .28125-101.457031.007812-184-82.527344-184-183.992188zm208 182.382812v-5.917968c0-7.105469 3.945312-13.496094 10.304688-16.664063l18.550781-9.28125c11.816406-5.894531 19.152343-17.765625 19.152343-30.976562v-.976563c0-17-12.167968-31.367187-28.945312-34.167968l-13.613281-2.261719c-5.394531-.898438-10.097657-4.105469-12.914063-8.800781l-10.910156-18.183594c-3.679688-6.128906-5.625-13.144532-5.625-20.289063 0-19.359375-10.3125-37.566406-26.921875-47.535156l-10.636719-6.382813c-5.378906-3.226562-11.539062-4.9375-17.824218-4.9375h-21.992188c-10.273438 0-18.632812-8.359374-18.632812-18.632812 0-16.367188-11.152344-30.261719-27.121094-33.816406l-39.832032-8.855469c7.066407-13.4375 15.730469-25.910156 25.761719-37.136719l7.199219 12c8.304688 13.832032 23.488281 22.441406 39.632812 22.441406 14.121094 0 27.269532-6.320312 36.078126-17.34375l3.976562-4.96875c8.992188-11.238281 22.402344-17.6875 36.800781-17.6875 15.792969 0 30.457031 7.839844 39.214844 20.984376 11.273437 16.910156 30.144531 27.015624 50.472656 27.015624h5.230469c8.097656 0 16.042969 2.199219 22.984375 6.367188l14.984375 8.984375c9.425781 5.65625 20.21875 8.648437 31.210938 8.648437h24.671874c1.679688 5.230469 3.101563 10.578126 4.308594 16h-36.015625c-17.574219 0-33.382812 9.769532-41.246093 25.496094-2.007813 4.015625-6.039063 6.503906-10.527344 6.503906-6.496094 0-11.777344-5.28125-11.777344-11.777343v-4.230469c0-22.054688-17.945312-40-40-40s-40 17.945312-40 40c0 12.519531 5.984375 24.488281 16 32l6.097656 4.566406c6.199219 4.65625 9.902344 12.066406 9.902344 19.816406 0 17.578126 11.199219 33.121094 27.871094 38.671876l38.402344 12.800781c-6.195313 12.808593-9.90625 26.921875-10.242188 41.710937-.261719 11.488282 1.527344 22.617188 4.800781 33.203125-21.191406 12.414063-44.542969 20.4375-68.832031 23.613281zm168 97.617188c-19.3125 0-35.472656-13.769531-39.191406-32h78.382812c-3.71875 18.230469-19.878906 32-39.191406 32zm48-48h-96c-4.40625 0-8-3.585938-8-8s3.59375-8 8-8h96c4.40625 0 8 3.585938 8 8s-3.59375 8-8 8zm-72-96h-16c-8.824219 0-16-7.175781-16-16s7.175781-16 16-16 16 7.175781 16 16zm32 64h-16v-48h16zm41.945312.199219c-.648437-.054688-1.28125-.199219-1.945312-.199219h-24v-48h16c17.648438 0 32-14.351562 32-32s-14.351562-32-32-32-32 14.351562-32 32v16h-16v-16c0-17.648438-14.351562-32-32-32s-32 14.351562-32 32 14.351562 32 32 32h16v48h-24c-.664062 0-1.289062.144531-1.9375.191406-24.496094-16.933594-38.71875-44.429687-38.039062-74.261718 1.046874-45.609376 38.960937-84.128907 84.519531-85.867188 24.226562-.765625 47.089843 7.792969 64.472656 24.53125 17.398437 16.75 26.984375 39.261719 26.984375 63.40625 0 28.984375-14.230469 55.703125-38.054688 72.199219zm-25.945312-64.199219v-16c0-8.824219 7.175781-16 16-16s16 7.175781 16 16-7.175781 16-16 16zm-368 112h16v16h-16zm16-32v16h-16v-16zm0 32v-16h16v16zm-16-16v16h-16v-16zm400-384h16v16h-16zm16-32v16h-16v-16zm0 32v-16h16v16zm-16-16v16h-16v-16zm-16 144h16v16h-16zm0-32h16v16h-16zm16 32v-16h16v16zm-16-16v16h-16v-16zm-384 32h16v16h-16zm48 88h16v16h-16zm184-56h16v16h-16zm-8-152h-16v-16h16zm-112 256h16v16h-16zm0-80h-16v-16h16zm0 0" fill="url(#a)"/></svg>